<?xml version="1.0" encoding="utf-8"?>
<!-- Generator: Adobe Illustrator 27.8.1, SVG Export Plug-In . SVG Version: 6.00 Build 0)  -->
<svg version="1.1" id="Ebene_1" xmlns="http://www.w3.org/2000/svg" xmlns:xlink="http://www.w3.org/1999/xlink" x="0px" y="0px"
	 viewBox="0 0 115.1 65.8" style="enable-background:new 0 0 115.1 65.8;" xml:space="preserve">
<style type="text/css">
	.st0{fill:#FFFFFF;}
</style>
<path class="st0" d="M19.8,6C12.3,6,6.2,12.2,6.2,19.7c0,7.5,6.1,13.6,13.6,13.7c7.5,0,13.7-6.1,13.7-13.7C33.5,12.1,27.3,6,19.8,6
	 M0.8,19.7c0-10.4,8.5-19,19-19c10.5,0,18.9,8.5,18.9,19c0,10.5-8.5,18.9-18.9,18.9C9.3,38.6,0.8,30.2,0.8,19.7"/>
<path class="st0" d="M57.3,0.7L57.3,0.7h-0.1c-6.8,0-9.6,5.2-9.6,9.6c0,3,0.9,5.5,4.1,8.2c0.5,0.5,1,0.9,1.5,1.2l-4.9,4.1l-1.1-4.1
	h-5.6l2.3,7.9L39,31.4v6.7l6.9-5.5c2.3,3.4,6.1,5.7,10.4,5.9c0.2,0,0.4,0,0.6,0l0.3,0l0.1,0l0.1,0l0.3,0c0.2,0,0.4,0,0.6,0
	c4.3-0.3,8.1-2.6,10.4-5.9l6.9,5.5v-6.7l-4.9-3.8l2.3-7.9h-5.6l-1.1,4.1l-4.9-4.1c0.5-0.3,1-0.7,1.5-1.2c3.2-2.7,4.1-5.2,4.1-8.2
	C66.9,6,64.1,0.7,57.3,0.7 M57.3,16.5c0,0-0.2-0.1-0.5-0.4c-1.2-0.9-3.8-3.2-3.8-5.7C53,8.3,54.3,6,57.3,6c2.9,0,4.3,2.4,4.3,4.5
	c0,2.5-2.6,4.8-3.8,5.7C57.5,16.4,57.3,16.5,57.3,16.5 M57.3,33.4c-3.1,0-5.7-1.8-7.2-4.3l7.2-5.9l7.2,5.9
	C63,31.6,60.4,33.4,57.3,33.4"/>
<polygon class="st0" points="103.7,38.1 93.1,17.1 82.6,38.1 72.1,1.3 78.2,1.3 83.9,22.3 93.1,4.8 102.3,22.3 108.2,1.3 114.2,1.3 
	"/>
<path class="st0" d="M4.6,50.9h2c0.9,0,1.5-0.2,1.5-1c0-0.7-0.4-1-1.4-1h-2V50.9z M4.6,54.2H3.8v-6h2.9c1.8,0,2.3,0.6,2.3,1.6
	c0,0.7-0.5,1.3-1.4,1.4v0c0.8,0.1,1,0.4,1.2,1.4c0.1,0.6,0.2,1.2,0.3,1.6H8.2C8.1,53.8,8,53,7.8,52.3c-0.1-0.4-0.4-0.7-1.5-0.7H4.6
	V54.2z"/>
<polygon class="st0" points="12.1,48.3 16.6,48.3 16.6,48.9 13,48.9 13,50.8 16.3,50.8 16.3,51.5 13,51.5 13,53.6 16.7,53.6 
	16.7,54.2 12.1,54.2 "/>
<path class="st0" d="M25.6,52.6c-0.2,1.3-1.4,1.8-2.9,1.8c-2.1,0-3.1-1.5-3.1-3.1c0-1.4,0.9-3.1,3.4-3.1c1.4,0,2.5,0.7,2.6,1.7h-1
	c-0.1-0.8-0.9-1.1-1.7-1.1c-1.4,0-2.4,0.8-2.4,2.5c0,1.7,1,2.5,2.4,2.5c0.8,0,1.6-0.4,1.8-1.1H25.6z"/>
<polygon class="st0" points="33.2,51.5 29.4,51.5 29.4,54.2 28.5,54.2 28.5,48.3 29.4,48.3 29.4,50.8 33.2,50.8 33.2,48.3 
	34.1,48.3 34.1,54.2 33.2,54.2 "/>
<polygon class="st0" points="39.1,49 36.6,49 36.6,48.3 42.5,48.3 42.5,49 40,49 40,54.2 39.1,54.2 "/>
<path class="st0" d="M49.2,49.9c-0.1-0.8-0.9-1.1-1.9-1.1c-0.9,0-1.6,0.4-1.6,1.1c0,0.3,0.2,0.7,0.9,0.8l2.2,0.4
	c1,0.2,1.4,0.7,1.4,1.5c0,1.2-1.1,1.9-2.8,1.9c-1.7,0-2.7-0.6-2.8-1.9h0.9c0,0.8,0.8,1.3,1.9,1.3c1.2,0,1.9-0.5,1.9-1.1
	c0-1.7-4.6-0.2-4.6-2.7c0-1.1,1-1.8,2.6-1.8c1.2,0,2.6,0.4,2.6,1.7H49.2z"/>
<path class="st0" d="M57.5,52L56,49l-1.5,3H57.5z M57.8,52.7h-3.7l-0.8,1.6h-1l3.1-6h1l3.1,6h-1L57.8,52.7z"/>
<polygon class="st0" points="66.8,48.3 67.7,48.3 67.7,54.2 66.5,54.2 62.8,49.1 62.8,49.1 62.8,54.2 62,54.2 62,48.3 63.1,48.3 
	66.8,53.4 66.8,53.4 "/>
<polygon class="st0" points="79.4,48.3 80.3,48.3 78.2,54.2 77,54.2 75.2,49 75.2,49 73.3,54.2 72.2,54.2 70.1,48.3 71,48.3 
	72.8,53.5 72.8,53.5 74.6,48.3 75.8,48.3 77.6,53.5 77.6,53.5 "/>
<path class="st0" d="M87,52l-1.5-3L84,52H87z M87.4,52.7h-3.7l-0.8,1.6h-1l3.1-6h1l3.1,6h-1L87.4,52.7z"/>
<polygon class="st0" points="91.7,48.3 92.6,48.3 92.6,53.6 96,53.6 96,54.2 91.7,54.2 "/>
<polygon class="st0" points="100.3,49 97.8,49 97.8,48.3 103.7,48.3 103.7,49 101.2,49 101.2,54.2 100.3,54.2 "/>
<path class="st0" d="M110.4,49.9c-0.1-0.8-0.9-1.1-1.9-1.1c-0.9,0-1.6,0.4-1.6,1.1c0,0.3,0.2,0.7,0.9,0.8l2.2,0.4
	c1,0.2,1.4,0.7,1.4,1.5c0,1.2-1.1,1.9-2.8,1.9c-1.7,0-2.7-0.6-2.8-1.9h0.9c0,0.8,0.8,1.3,1.9,1.3c1.2,0,1.9-0.5,1.9-1.1
	c0-1.7-4.6-0.2-4.6-2.7c0-1.1,1-1.8,2.6-1.8c1.2,0,2.6,0.4,2.6,1.7H110.4z"/>
<path class="st0" d="M7.3,61.6h2.8v2.7c-1,0.4-1.9,0.6-2.9,0.6c-2.4,0-3.5-1.5-3.5-3.1c0-1.5,0.9-3.1,3.4-3.1c1.7,0,2.7,0.5,2.9,1.7
	H9.1c-0.2-0.8-1-1-1.9-1c-1.7,0-2.6,1.1-2.6,2.5c0,1.3,0.9,2.5,2.6,2.5c0.7,0,1.4-0.1,2-0.4v-1.5H7.3V61.6z"/>
<polygon class="st0" points="12.1,58.8 16.5,58.8 16.5,59.5 12.9,59.5 12.9,61.4 16.3,61.4 16.3,62 12.9,62 12.9,64.1 16.6,64.1 
	16.6,64.8 12.1,64.8 "/>
<path class="st0" d="M22.6,60.4c-0.1-0.8-0.9-1.1-1.9-1.1c-0.9,0-1.6,0.4-1.6,1.1c0,0.3,0.2,0.7,0.9,0.8l2.2,0.4
	c1,0.2,1.4,0.7,1.4,1.5c0,1.2-1.1,1.9-2.8,1.9c-1.7,0-2.7-0.6-2.8-1.9H19c0,0.8,0.8,1.3,1.9,1.3c1.2,0,1.9-0.5,1.9-1.1
	c0-1.7-4.6-0.2-4.6-2.7c0-1.1,1-1.8,2.6-1.8c1.2,0,2.6,0.4,2.6,1.7H22.6z"/>
<polygon class="st0" points="25.4,58.8 29.9,58.8 29.9,59.5 26.3,59.5 26.3,61.4 29.7,61.4 29.7,62 26.3,62 26.3,64.1 30,64.1 
	30,64.8 25.4,64.8 "/>
<polygon class="st0" points="31.9,58.8 32.8,58.8 32.8,64.1 36.2,64.1 36.2,64.8 31.9,64.8 "/>
<polygon class="st0" points="37.7,58.8 38.5,58.8 38.5,64.1 42,64.1 42,64.8 37.7,64.8 "/>
<path class="st0" d="M47.5,60.4c-0.1-0.8-0.9-1.1-1.9-1.1c-0.9,0-1.6,0.4-1.6,1.1c0,0.3,0.2,0.7,0.9,0.8l2.2,0.4
	c1,0.2,1.4,0.7,1.4,1.5c0,1.2-1.1,1.9-2.8,1.9c-1.7,0-2.7-0.6-2.8-1.9h0.9c0,0.8,0.8,1.3,1.9,1.3c1.2,0,1.9-0.5,1.9-1.1
	c0-1.7-4.6-0.2-4.6-2.7c0-1.1,1-1.8,2.6-1.8c1.2,0,2.6,0.4,2.6,1.7H47.5z"/>
<path class="st0" d="M56.2,63.1c-0.2,1.3-1.4,1.8-2.9,1.8c-2.1,0-3.1-1.5-3.1-3.1c0-1.4,0.9-3.1,3.4-3.1c1.4,0,2.5,0.7,2.6,1.7h-1
	c-0.1-0.8-0.9-1.1-1.7-1.1c-1.4,0-2.4,0.8-2.4,2.5c0,1.7,1,2.5,2.4,2.5c0.8,0,1.6-0.4,1.8-1.1H56.2z"/>
<polygon class="st0" points="62.6,62 58.8,62 58.8,64.8 57.9,64.8 57.9,58.8 58.8,58.8 58.8,61.3 62.6,61.3 62.6,58.8 63.5,58.8 
	63.5,64.8 62.6,64.8 "/>
<path class="st0" d="M69.8,62.5l-1.5-3l-1.5,3H69.8z M70.1,63.2h-3.7l-0.8,1.6h-1l3.1-6h1l3.1,6h-1L70.1,63.2z"/>
<polygon class="st0" points="73,58.8 77.2,58.8 77.2,59.5 73.9,59.5 73.9,61.4 77.1,61.4 77.1,62.1 73.9,62.1 73.9,64.8 73,64.8 "/>
<polygon class="st0" points="80.6,59.5 78.1,59.5 78.1,58.8 84,58.8 84,59.5 81.5,59.5 81.5,64.8 80.6,64.8 "/>
<polygon class="st0" points="89.4,59.4 89.4,59.4 89.4,64.8 88.5,64.8 88.5,58.8 89.9,58.8 92.5,64 95.2,58.8 96.5,58.8 96.5,64.8 
	95.7,64.8 95.7,59.4 95.7,59.4 93,64.8 92.1,64.8 "/>
<path class="st0" d="M99.3,64.1h2.1c1.2,0,1.5-0.5,1.5-1c0-0.7-0.5-1.1-1.5-1.1h-2V64.1z M99.3,61.3h2.2c0.7,0,1.2-0.3,1.2-0.9
	c0-0.6-0.3-0.9-1.4-0.9h-1.9V61.3z M98.5,58.8h2.8c1.6,0,2.3,0.5,2.3,1.5c0,0.8-0.4,1.2-1.2,1.3v0c1,0.1,1.4,0.7,1.4,1.5
	c0,0.9-0.7,1.7-2.3,1.7h-3V58.8z"/>
<polygon class="st0" points="110.3,62 106.4,62 106.4,64.8 105.6,64.8 105.6,58.8 106.4,58.8 106.4,61.3 110.3,61.3 110.3,58.8 
	111.1,58.8 111.1,64.8 110.3,64.8 "/>
</svg>
